<?xml version="1.0" encoding="UTF-8" standalone="no"?>
<svg
   version="1.1"
   id="svg2"
   width="599.8667"
   height="173.45332"
   viewBox="0 0 599.8667 173.45332"
   xmlns="http://www.w3.org/2000/svg"
   xmlns:svg="http://www.w3.org/2000/svg">
  <defs
     id="defs6" />
  <g
     id="g8"
     transform="matrix(1.3333333,0,0,-1.3333333,0,173.45333)">
    <g
       id="g10"
       transform="scale(0.1)">
      <path
         d="m 252.313,811.887 h -79.286 c -15.339,0 -27.976,12.636 -27.976,27.968 v 280.055 c 0,15.34 12.637,27.97 27.976,27.97 h 76.426 c 55.402,0 95.977,-38.18 95.977,-92.07 0,-33.63 -13.848,-50.93 -31.668,-69.724 19.793,-17.324 38.472,-40.664 38.472,-74.18 v -3.965 c 0,-54.882 -45.015,-96.054 -99.921,-96.054 m -2.364,282.013 h -51.082 v -82.07 h 51.082 c 22.309,0 38.11,18.75 38.11,43.98 0,22.8 -15.852,38.09 -38.11,38.09 m 44.887,-181.994 c 0,26.992 -19.121,45.938 -42.031,45.938 H 198.867 V 865.91 h 53.938 c 24.55,0 42.031,18.789 42.031,42.031 v 3.965"
         style="fill:#231f20;fill-opacity:1;fill-rule:nonzero;stroke:none"
         id="path12" />
      <path
         d="m 448.398,807.785 c -14.343,0 -28.691,9.395 -28.691,28.672 v 285.703 c 0,19.3 14.348,28.67 28.691,28.67 14.344,0 28.68,-9.37 28.68,-28.67 V 836.457 c 0,-19.277 -14.336,-28.672 -28.68,-28.672"
         style="fill:#231f20;fill-opacity:1;fill-rule:nonzero;stroke:none"
         id="path14" />
      <path
         d="m 661.777,807.805 h -4.441 c -54.406,0 -98.906,44.14 -98.906,97.402 v 150.133 c 0,54.89 44.5,95.49 98.906,95.49 h 4.441 c 54.911,0 98.926,-40.6 98.926,-95.49 V 905.207 c 0,-53.262 -41.785,-97.402 -98.926,-97.402 m 41.575,248.965 c 0,23.24 -18.313,40.06 -41.575,40.06 h -4.441 c -23.242,0 -41.543,-17.33 -41.543,-40.06 V 905.188 c 0,-24.493 17.73,-43.379 41.543,-43.379 h 4.441 c 25.176,0 41.575,19.043 41.575,42.89 v 152.071"
         style="fill:#231f20;fill-opacity:1;fill-rule:nonzero;stroke:none"
         id="path16" />
      <path
         d="M 986.145,811.887 H 845.652 c -17.273,0 -30.347,10.195 -30.347,30.488 0,5.43 2.207,11.973 5.156,17.617 L 948.059,1093.9 h -96.954 c -19.289,0 -28.695,12.91 -28.695,27.23 0,13.86 9.406,26.75 28.695,26.75 h 134.532 c 19.903,0 29.653,-13.34 29.653,-29.25 0,-5.94 -1.87,-12.93 -4.44,-18.33 L 889.199,865.91 h 97.41 c 18.791,0 28.181,-12.324 28.181,-26.758 0,-14.961 -9.39,-27.265 -28.645,-27.265"
         style="fill:#231f20;fill-opacity:1;fill-rule:nonzero;stroke:none"
         id="path18" />
      <path
         d="m 1256.8,811.887 h -144.93 c -15.32,0 -28.67,11.933 -28.67,27.265 v 281.488 c 0,15.33 13.35,27.24 28.67,27.24 h 144.93 c 19.26,0 28.66,-12.89 28.66,-26.75 0,-14.32 -9.4,-27.23 -28.66,-27.23 h -116.24 v -82.07 h 77.16 c 19.26,0 28.68,-12.892 28.68,-27.228 0,-13.848 -9.42,-26.758 -28.68,-26.758 h -77.16 V 865.91 h 116.24 c 19.26,0 28.66,-12.89 28.66,-27.246 0,-13.867 -9.4,-26.777 -28.66,-26.777"
         style="fill:#231f20;fill-opacity:1;fill-rule:nonzero;stroke:none"
         id="path20" />
      <path
         d="m 1536,806.359 h -2.61 c -16.95,0 -25.17,9.981 -32.23,24.727 l -95.35,187.524 V 835.031 c 0,-19.277 -14.35,-28.672 -28.67,-28.672 -14.36,0 -28.7,9.395 -28.7,28.672 v 285.699 c 0,15.34 12.33,30.1 28.7,30.1 h 3.53 c 18.3,0 25.26,-10.47 33.32,-26.07 l 93.68,-176.662 v 174.572 c 0,18.79 14.3,28.16 28.65,28.16 14.34,0 28.71,-9.37 28.71,-28.16 V 837.297 c 0,-17.93 -13.69,-30.938 -29.03,-30.938"
         style="fill:#231f20;fill-opacity:1;fill-rule:nonzero;stroke:none"
         id="path22" />
      <path
         d="m 1783.92,1093.9 h -39.56 V 835.051 c 0,-19.297 -14.33,-28.672 -28.68,-28.672 -14.34,0 -28.69,9.375 -28.69,28.672 V 1093.9 h -39.56 c -18.81,0 -28.7,12.91 -28.7,27.23 0,13.86 9.89,26.77 28.7,26.77 h 136.49 c 19.29,0 28.7,-12.91 28.7,-26.77 0,-14.32 -9.41,-27.23 -28.7,-27.23"
         style="fill:#231f20;fill-opacity:1;fill-rule:nonzero;stroke:none"
         id="path24" />
      <path
         d="m 2019.89,960.676 51.96,-113.262 c 1.95,-4.453 3.45,-8.906 3.45,-12.851 0,-16.348 -15.33,-28.204 -30.19,-28.204 -9.89,0 -19.28,4.942 -24.73,16.817 l -59.82,129.57 h -29.68 V 835.051 c 0,-19.297 -14.35,-28.692 -28.68,-28.692 -14.34,0 -28.68,9.395 -28.68,31.524 v 285.607 c 0,12.48 13.35,24.39 28.68,24.39 h 77.64 c 54.91,0 98.92,-41.13 98.92,-96.03 v -1.6 c 0,-41.04 -23.24,-74.75 -58.87,-89.574 m 1.51,91.174 c 0,23.22 -16.83,42.05 -40.08,42.05 h -50.44 v -87.13 h 51.95 c 22.23,0 38.57,20.72 38.57,43.48 v 1.6"
         style="fill:#231f20;fill-opacity:1;fill-rule:nonzero;stroke:none"
         id="path26" />
      <path
         d="m 2255.35,807.805 h -4.46 c -54.43,0 -98.92,43.066 -98.92,97.48 v 216.875 c 0,19.3 14.34,28.67 28.69,28.67 14.33,0 28.67,-9.37 28.67,-28.67 V 903.84 c 0,-22.735 18.8,-42.031 41.56,-42.031 h 4.46 c 23.21,0 42,18.789 42,42.031 v 218.32 c 0,19.3 14.37,28.67 28.69,28.67 14.36,0 28.68,-9.37 28.68,-28.67 V 905.285 c 0,-54.414 -44.48,-97.48 -99.37,-97.48"
         style="fill:#231f20;fill-opacity:1;fill-rule:nonzero;stroke:none"
         id="path28" />
      <path
         d="m 2676.54,806.359 c -14.32,0 -28.66,9.395 -28.66,28.672 v 183.579 l -44.9,-96.919 c -6.94,-16.347 -19.78,-19.296 -29.17,-19.296 -9.41,0 -22.27,2.949 -29.19,19.296 l -44.89,96.919 V 835.031 c 0,-19.277 -14.35,-28.672 -28.69,-28.672 -14.34,0 -28.7,9.395 -28.7,28.672 v 287.129 c 0,15.33 13.36,28.67 28.7,28.67 h 7.41 c 18.3,0 25.24,-11.85 31.15,-24.7 l 64.21,-135.61 64.16,135.61 c 5.45,12.85 12.86,24.7 31.16,24.7 h 7.41 c 15.35,0 28.7,-13.34 28.7,-28.67 V 835.031 c 0,-19.277 -14.33,-28.672 -28.7,-28.672"
         style="fill:#231f20;fill-opacity:1;fill-rule:nonzero;stroke:none"
         id="path30" />
      <path
         d="m 358.262,1278.12 c 0,-11.78 -9.532,-21.31 -21.309,-21.31 H 22.7344 c -11.7656,0 -21.31643,9.53 -21.31643,21.31 v 0 c 0,11.77 9.55083,21.31 21.31643,21.31 H 336.953 c 11.777,0 21.309,-9.54 21.309,-21.31 v 0"
         style="fill:#231f20;fill-opacity:1;fill-rule:nonzero;stroke:none"
         id="path32" />
      <path
         d="m 358.262,671.75 c 0,-11.758 -9.532,-21.309 -21.309,-21.309 H 22.7344 c -11.7656,0 -21.31643,9.551 -21.31643,21.309 v 0 c 0,11.777 9.55083,21.328 21.31643,21.328 H 336.953 c 11.777,0 21.309,-9.551 21.309,-21.328 v 0"
         style="fill:#231f20;fill-opacity:1;fill-rule:nonzero;stroke:none"
         id="path34" />
      <path
         d="M 220.789,188.141 H 183.27 V 6.96875 C 183.27,2.03125 179.773,0 176.008,0 c -3.496,0 -6.992,2.03125 -6.992,6.96875 V 188.141 h -37.512 c -4.949,0 -7.274,3.5 -7.274,6.988 0,3.769 2.325,7.269 7.274,7.269 h 89.285 c 4.941,0 7.27,-3.5 7.27,-7.269 0,-3.488 -2.329,-6.988 -7.27,-6.988"
         style="fill:#231f20;fill-opacity:1;fill-rule:nonzero;stroke:none"
         id="path36" />
      <path
         d="m 342.93,0 c -3.496,0 -7.278,2.03125 -7.278,6.96875 V 98.3008 c 0,17.4372 -13.379,30.8202 -30.839,30.8202 h -2.618 c -17.437,0 -31.109,-14.262 -31.109,-31.6991 V 6.96875 C 271.086,2.03125 267.305,0 263.816,0 260.32,0 256.555,2.03125 256.555,6.96875 V 196.891 c 0,4.918 3.765,7.269 7.261,7.269 3.489,0 7.27,-2.351 7.27,-7.269 v -67.77 c 5.516,8.43 19.195,14.25 31.109,14.25 h 2.618 c 24.73,0 45.382,-19.781 45.382,-45.371 V 6.96875 C 350.195,2.03125 346.418,0 342.93,0"
         style="fill:#231f20;fill-opacity:1;fill-rule:nonzero;stroke:none"
         id="path38" />
      <path
         d="m 473.184,98 c 0,17.148 -14.539,31.121 -30.829,31.121 h -2.914 c -17.156,0 -31.406,-13.973 -31.406,-31.121 V 78.8008 h 65.149 z m 6.984,-33.7305 H 408.035 V 45.0703 c 0,-17.1601 13.969,-31.1289 31.113,-31.1289 h 2.922 c 13.66,0 24.422,8.4375 28.789,20.957 1.161,3.2032 3.489,4.9414 6.692,4.9414 3.765,0 7.847,-2.621 7.847,-6.9687 0,-0.5898 -0.293,-1.4727 -0.585,-2.6211 C 478.711,11.9102 461.848,0 442.07,0 h -2.922 C 414.426,0 393.777,20.0508 393.777,45.0703 V 98 c 0,24.73 20.649,45.371 45.078,45.371 h 2.915 c 25.308,0 45.664,-18.922 45.664,-45.371 V 71.5391 c 0,-3.7891 -3.489,-7.2696 -7.266,-7.2696"
         style="fill:#231f20;fill-opacity:1;fill-rule:nonzero;stroke:none"
         id="path40" />
      <path
         d="m 654.617,0 h -2.906 c -29.375,0 -53.52,23.2617 -53.52,52.9297 V 150.93 c 0,29.652 24.145,53.23 53.52,53.23 h 2.906 c 27.055,0 49.438,-19.789 52.641,-45.672 v -0.879 c 0,-4.347 -3.203,-7.257 -6.985,-7.257 -3.488,0 -6.394,2.609 -7.265,6.109 -2.324,18.609 -18.613,33.437 -38.391,33.437 h -2.906 c -21.816,0 -39.262,-17.168 -39.262,-38.968 V 52.9297 c 0,-21.8008 17.446,-38.9883 39.262,-38.9883 h 2.906 c 19.778,0 36.067,14.8399 38.391,33.457 0.871,3.4922 3.777,6.1133 7.265,6.1133 3.782,0 6.985,-2.9101 6.985,-7.2812 V 45.3711 C 704.055,19.1797 681.672,0 654.617,0"
         style="fill:#231f20;fill-opacity:1;fill-rule:nonzero;stroke:none"
         id="path42" />
      <path
         d="m 817.742,98 c 0,17.148 -14.539,31.121 -30.828,31.121 h -2.898 c -17.168,0 -31.418,-13.973 -31.418,-31.121 V 78.8008 h 65.144 z m 6.985,-33.7305 H 752.598 V 45.0703 c 0,-17.1601 13.965,-31.1289 31.125,-31.1289 h 2.91 c 13.672,0 24.43,8.4375 28.789,20.957 1.172,3.2032 3.496,4.9414 6.68,4.9414 3.789,0 7.859,-2.621 7.859,-6.9687 0,-0.5898 -0.281,-1.4727 -0.574,-2.6211 C 823.27,11.9102 806.406,0 786.633,0 h -2.91 C 758.992,0 738.328,20.0508 738.328,45.0703 V 98 c 0,24.73 20.664,45.371 45.102,45.371 h 2.91 c 25.301,0 45.652,-18.922 45.652,-45.371 V 71.5391 c 0,-3.7891 -3.484,-7.2696 -7.265,-7.2696"
         style="fill:#231f20;fill-opacity:1;fill-rule:nonzero;stroke:none"
         id="path44" />
      <path
         d="m 957.898,0 c -3.484,0 -7.261,2.03125 -7.261,6.96875 V 98.3008 c 0,17.4372 -13.379,30.8202 -30.832,30.8202 h -2.625 c -17.446,0 -31.117,-14.262 -31.117,-31.6991 V 6.96875 C 886.063,2.03125 882.285,0 878.801,0 c -3.496,0 -7.278,2.03125 -7.278,6.96875 V 136.109 c 0,4.922 3.782,7.262 7.278,7.262 3.484,0 7.262,-2.34 7.262,-7.262 v -6.988 c 5.531,8.43 19.203,14.25 31.117,14.25 h 2.625 c 24.715,0 45.383,-19.781 45.383,-45.371 V 6.96875 C 965.188,2.03125 961.395,0 957.898,0"
         style="fill:#231f20;fill-opacity:1;fill-rule:nonzero;stroke:none"
         id="path46" />
      <path
         d="m 1054.72,0 c -22.11,0 -36.07,13.9414 -36.07,36.0508 v 92.2112 h -10.48 c -4.94,0 -7.26,3.468 -7.26,6.949 0,3.789 2.32,7.289 7.26,7.289 h 10.48 v 54.391 c 0,4.918 3.49,7.269 7.27,7.269 3.48,0 6.98,-2.351 6.98,-7.269 V 142.5 h 20.07 c 4.95,0 7.56,-3.5 7.56,-7.289 0,-3.481 -2.61,-6.949 -7.56,-6.949 H 1032.9 V 36.0508 c 0,-12.5 8.14,-22.1094 21.82,-22.1094 4.94,0 7.27,-3.5 7.27,-6.97265 C 1061.99,3.17969 1059.66,0 1054.72,0"
         style="fill:#231f20;fill-opacity:1;fill-rule:nonzero;stroke:none"
         id="path48" />
      <path
         d="m 1173.64,98 c 0,17.148 -14.54,31.121 -30.83,31.121 h -2.9 c -17.16,0 -31.4,-13.973 -31.4,-31.121 V 78.8008 h 65.13 z m 6.99,-33.7305 h -72.12 V 45.0703 c 0,-17.1601 13.96,-31.1289 31.11,-31.1289 h 2.91 c 13.66,0 24.43,8.4375 28.8,20.957 1.14,3.2032 3.48,4.9414 6.67,4.9414 3.79,0 7.86,-2.621 7.86,-6.9687 0,-0.5898 -0.28,-1.4727 -0.58,-2.6211 C 1179.19,11.9102 1162.3,0 1142.53,0 h -2.91 c -24.73,0 -45.37,20.0508 -45.37,45.0703 V 98 c 0,24.73 20.64,45.371 45.08,45.371 h 2.91 c 25.31,0 45.65,-18.922 45.65,-45.371 V 71.5391 c 0,-3.7891 -3.49,-7.2696 -7.26,-7.2696"
         style="fill:#231f20;fill-opacity:1;fill-rule:nonzero;stroke:none"
         id="path50" />
      <path
         d="m 1293.74,118.059 c -2.32,0 -4.36,1.171 -5.8,3.211 -4.67,6.671 -10.49,7.851 -18.63,7.851 -11.94,0 -21.53,-5.242 -21.53,-19.199 V 7.26172 C 1247.78,2.32031 1244.3,0 1240.52,0 c -3.5,0 -7.29,2.32031 -7.29,7.26172 V 136.109 c 0,4.922 3.79,7.262 7.58,7.262 3.49,0 6.97,-2.34 6.97,-6.992 4.38,4.359 13.68,6.992 21.53,6.992 10.17,0 22.97,-3.199 30.25,-13.672 1.15,-1.437 1.74,-2.91 1.74,-4.347 0,-4.383 -3.77,-7.293 -7.56,-7.293"
         style="fill:#231f20;fill-opacity:1;fill-rule:nonzero;stroke:none"
         id="path52" />
      <path
         d="m 1438.23,189.898 c -12.49,0 -21.22,-8.148 -21.22,-22.109 V 142.5 h 19.48 c 4.95,0 7.56,-3.5 7.56,-7 0,-3.469 -2.61,-7.238 -7.56,-7.238 h -19.48 V 6.96875 C 1417.01,2.03125 1413.52,0 1410.03,0 c -3.49,0 -7.27,2.03125 -7.27,6.96875 V 128.262 h -11.06 c -4.93,0 -7.27,3.769 -7.27,7.238 0,3.5 2.34,7 7.27,7 h 11.06 v 25.289 c 0,24.141 14.83,36.371 35.47,36.371 4.96,0 7.58,-3.5 7.58,-7 0,-3.469 -2.62,-7.262 -7.58,-7.262"
         style="fill:#231f20;fill-opacity:1;fill-rule:nonzero;stroke:none"
         id="path54" />
      <path
         d="m 1546.99,98 c 0,17.148 -13.96,31.121 -31.11,31.121 h -2.91 c -17.16,0 -31.12,-13.973 -31.12,-31.121 V 45.0703 c 0,-17.1601 13.96,-31.1289 31.12,-31.1289 h 2.91 c 17.15,0 31.11,13.9688 31.11,31.1289 z M 1515.88,0 h -2.91 c -24.72,0 -45.37,20.0508 -45.37,45.0703 V 98 c 0,25.59 20.65,45.371 45.37,45.371 h 2.91 c 24.71,0 45.38,-19.781 45.38,-45.371 V 45.0703 C 1561.26,20.0508 1540.59,0 1515.88,0"
         style="fill:#231f20;fill-opacity:1;fill-rule:nonzero;stroke:none"
         id="path56" />
      <path
         d="m 1669.98,118.059 c -2.31,0 -4.35,1.171 -5.81,3.211 -4.65,6.671 -10.46,7.851 -18.61,7.851 -11.93,0 -21.53,-5.242 -21.53,-19.199 V 7.26172 C 1624.03,2.32031 1620.55,0 1616.77,0 c -3.5,0 -7.29,2.32031 -7.29,7.26172 V 136.109 c 0,4.922 3.79,7.262 7.57,7.262 3.5,0 6.98,-2.34 6.98,-6.992 4.37,4.359 13.68,6.992 21.53,6.992 10.18,0 22.98,-3.199 30.24,-13.672 1.17,-1.437 1.76,-2.91 1.76,-4.347 0,-4.383 -3.78,-7.293 -7.58,-7.293"
         style="fill:#231f20;fill-opacity:1;fill-rule:nonzero;stroke:none"
         id="path58" />
      <path
         d="m 1923.95,0 c -3.49,0 -6.99,2.03125 -6.99,6.96875 V 175.93 l -50.6,-110.7816 c -1.46,-3.4882 -4.65,-5.25 -7.85,-5.25 -2.62,0 -6.4,1.7618 -7.86,5.25 L 1800.05,175.93 V 6.96875 C 1800.05,2.03125 1796.55,0 1793.07,0 c -3.78,0 -7.28,2.03125 -7.28,6.96875 V 196.871 c 0,3.789 3.5,7.27 7.28,7.27 h 5.23 c 2.03,0 5.53,-2.332 6.4,-4.36 l 53.81,-119.5115 53.8,119.5115 c 0.87,2.028 4.36,4.36 6.4,4.36 h 5.24 c 3.77,0 7.27,-3.481 7.27,-7.27 V 6.96875 C 1931.22,2.03125 1927.72,0 1923.95,0"
         style="fill:#231f20;fill-opacity:1;fill-rule:nonzero;stroke:none"
         id="path60" />
      <path
         d="m 2057.1,98 c 0,17.148 -13.97,31.121 -31.11,31.121 h -2.91 c -17.17,0 -31.13,-13.973 -31.13,-31.121 V 45.0703 c 0,-17.1406 13.96,-31.1094 31.13,-31.1094 h 2.91 c 17.14,0 31.11,13.9688 31.11,31.1094 z M 2025.99,0 h -2.91 c -24.73,0 -45.37,20.0508 -45.37,45.0703 V 98 c 0,25.59 20.64,45.352 45.37,45.352 h 2.91 c 24.7,0 45.37,-19.762 45.37,-45.352 V 45.0703 C 2071.36,20.0508 2050.69,0 2025.99,0"
         style="fill:#231f20;fill-opacity:1;fill-rule:nonzero;stroke:none"
         id="path62" />
      <path
         d="m 2156.24,0 c -23.55,0 -36.05,15.9922 -36.05,36.0703 V 196.871 c 0,4.938 3.77,7.27 7.26,7.27 3.5,0 7.27,-2.332 7.27,-7.27 V 36.0703 c 0,-12.5195 8.43,-22.1094 21.52,-22.1094 4.94,0 7.56,-3.5 7.56,-6.99215 C 2163.8,3.19922 2161.18,0 2156.24,0"
         style="fill:#231f20;fill-opacity:1;fill-rule:nonzero;stroke:none"
         id="path64" />
      <path
         d="m 2277.22,98 c 0,17.148 -14.54,31.121 -30.84,31.121 h -2.9 c -17.16,0 -31.42,-13.973 -31.42,-31.121 V 78.8008 h 65.16 z m 6.97,-33.7305 h -72.13 V 45.0703 c 0,-17.1406 13.97,-31.1094 31.13,-31.1094 h 2.91 c 13.67,0 24.43,8.4375 28.79,20.9375 1.16,3.2032 3.5,4.9414 6.68,4.9414 3.79,0 7.85,-2.621 7.85,-6.9687 0,-0.5898 -0.27,-1.4727 -0.57,-2.6211 C 2282.74,11.9297 2265.87,0 2246.1,0 h -2.91 c -24.72,0 -45.37,20.0508 -45.37,45.0703 V 98 c 0,24.711 20.65,45.352 45.08,45.352 h 2.9 c 25.3,0 45.66,-18.883 45.66,-45.352 V 71.5391 c 0,-3.7891 -3.48,-7.2696 -7.27,-7.2696"
         style="fill:#231f20;fill-opacity:1;fill-rule:nonzero;stroke:none"
         id="path66" />
      <path
         d="m 2381.88,0 h -2.91 c -24.72,0 -45.37,20.0508 -45.37,45.0703 V 98 c 0,25.59 20.65,45.352 45.37,45.352 h 2.91 c 24.73,0 45.39,-19.762 45.39,-45.352 0,-4.9414 -3.51,-7.2617 -6.99,-7.2617 -3.49,0 -7.28,2.3203 -7.28,7.2617 0,17.148 -13.96,31.121 -31.12,31.121 h -2.91 c -17.15,0 -31.11,-13.973 -31.11,-31.121 V 45.0703 c 0,-17.1406 13.96,-31.1094 31.11,-31.1094 h 2.91 c 17.16,0 31.12,13.9688 31.12,31.1094 0,4.9492 3.79,7.5586 7.28,7.5586 3.48,0 6.99,-2.6094 6.99,-7.5586 C 2427.27,20.0508 2406.61,0 2381.88,0"
         style="fill:#231f20;fill-opacity:1;fill-rule:nonzero;stroke:none"
         id="path68" />
      <path
         d="m 2552.58,0 c -3.49,0 -7.28,2.03125 -7.28,6.96875 V 13.9609 C 2539.79,5.51953 2526.12,0 2514.19,0 h -2.62 c -24.71,0 -45.37,19.1914 -45.37,45.0703 V 136.09 c 0,4.941 3.78,7.262 7.27,7.262 3.49,0 7.28,-2.321 7.28,-7.262 V 44.7813 c 0,-17.4415 13.37,-30.8204 30.82,-30.8204 h 2.62 c 17.44,0 31.11,14.2579 31.11,31.6993 V 136.09 c 0,4.941 3.79,7.262 7.28,7.262 3.48,0 7.27,-2.321 7.27,-7.262 V 6.96875 C 2559.85,2.03125 2556.06,0 2552.58,0"
         style="fill:#231f20;fill-opacity:1;fill-rule:nonzero;stroke:none"
         id="path70" />
      <path
         d="m 2652.89,0 c -23.56,0 -36.06,15.9922 -36.06,36.0703 V 196.871 c 0,4.938 3.78,7.27 7.26,7.27 3.49,0 7.28,-2.332 7.28,-7.27 V 36.0703 c 0,-12.5195 8.42,-22.1094 21.52,-22.1094 4.94,0 7.55,-3.5 7.55,-6.99215 C 2660.44,3.19922 2657.83,0 2652.89,0"
         style="fill:#231f20;fill-opacity:1;fill-rule:nonzero;stroke:none"
         id="path72" />
      <path
         d="M 2768.62,75.8906 C 2751.76,68.0391 2703.76,71.25 2703.76,43.0391 V 41.582 c 0,-17.4414 12.8,-27.6211 31.11,-27.6211 h 2.93 c 17.15,0 30.82,13.9688 30.82,31.1094 z M 2794.21,0 h -1.45 C 2781.12,2.03125 2775.3,7.26172 2772.1,15.1289 2763.67,5.51953 2751.46,0 2737.8,0 h -2.93 c -24.42,0 -45.37,14.5508 -45.37,41.8711 v 1.4687 c 0,38.961 45.96,36.3399 70.68,44.7813 7.86,2.6172 8.44,4.3594 8.44,11.0391 0,16.8708 -13.09,29.6598 -29.38,29.6598 h -2.03 c -11.63,0 -22.98,-4.351 -28.79,-17.441 -1.47,-2.91 -3.5,-4.348 -6.4,-4.348 -3.79,0 -7.86,2.891 -7.86,7.258 0,0.859 0.3,2.031 0.87,3.211 8.43,19.762 26.76,25.852 42.18,25.852 h 2.03 c 22.98,0 43.64,-18.883 43.64,-43.02 V 41.8711 c 0,-22.3828 2.89,-26.1719 12.2,-27.6211 4.07,-0.5781 6.12,-2.9102 6.12,-6.98828 C 2801.2,2.91016 2798.57,0 2794.21,0"
         style="fill:#231f20;fill-opacity:1;fill-rule:nonzero;stroke:none"
         id="path74" />
      <path
         d="m 2900.34,118.059 c -2.33,0 -4.36,1.171 -5.82,3.211 -4.67,6.691 -10.47,7.851 -18.61,7.851 -11.93,0 -21.53,-5.242 -21.53,-19.199 V 7.26172 C 2854.38,2.32031 2850.89,0 2847.12,0 c -3.5,0 -7.28,2.32031 -7.28,7.26172 V 136.09 c 0,4.941 3.78,7.262 7.55,7.262 3.5,0 6.99,-2.321 6.99,-6.973 4.36,4.383 13.68,6.973 21.53,6.973 10.17,0 22.99,-3.18 30.25,-13.653 1.15,-1.437 1.74,-2.91 1.74,-4.347 0,-4.383 -3.79,-7.293 -7.56,-7.293"
         style="fill:#231f20;fill-opacity:1;fill-rule:nonzero;stroke:none"
         id="path76" />
      <path
         d="m 3108.95,1.46094 h -82.59 c -3.79,0 -7.27,3.48047 -7.27,7.26953 V 196.871 c 0,4.938 3.48,7.27 7.27,7.27 3.77,0 7.26,-2.332 7.26,-7.27 V 15.6992 h 75.33 c 4.95,0 7.27,-3.4804 7.27,-6.96873 0,-3.5 -2.32,-7.26953 -7.27,-7.26953"
         style="fill:#231f20;fill-opacity:1;fill-rule:nonzero;stroke:none"
         id="path78" />
      <path
         d="m 3160.98,0 c -3.49,0 -7.27,2.03125 -7.27,6.96875 V 136.09 c 0,4.941 3.78,7.262 7.27,7.262 3.48,0 7.26,-2.321 7.26,-7.262 V 6.96875 C 3168.24,2.03125 3164.46,0 3160.98,0 Z m 0,180.02 c -3.49,0 -7.27,2.609 -7.27,7.261 v 9.59 c 0,4.938 3.78,7.27 7.27,7.27 3.48,0 7.26,-2.332 7.26,-7.27 v -9.59 c 0,-4.652 -3.78,-7.261 -7.26,-7.261"
         style="fill:#231f20;fill-opacity:1;fill-rule:nonzero;stroke:none"
         id="path80" />
      <path
         d="m 3264.49,189.898 c -12.5,0 -21.22,-8.148 -21.22,-22.109 V 142.5 h 19.48 c 4.94,0 7.56,-3.48 7.56,-6.98 0,-3.489 -2.62,-7.258 -7.56,-7.258 h -19.48 V 6.96875 C 3243.27,2.03125 3239.78,0 3236.28,0 c -3.49,0 -7.27,2.03125 -7.27,6.96875 V 128.262 h -11.05 c -4.94,0 -7.28,3.769 -7.28,7.258 0,3.5 2.34,6.98 7.28,6.98 h 11.05 v 25.289 c 0,24.16 14.83,36.352 35.48,36.352 4.94,0 7.57,-3.481 7.57,-6.981 0,-3.469 -2.63,-7.262 -7.57,-7.262"
         style="fill:#231f20;fill-opacity:1;fill-rule:nonzero;stroke:none"
         id="path82" />
      <path
         d="m 3379.07,98 c 0,17.148 -14.53,31.121 -30.84,31.121 h -2.9 c -17.17,0 -31.4,-13.973 -31.4,-31.121 V 78.8008 h 65.14 z m 6.99,-33.7305 h -72.13 V 45.0703 c 0,-17.1406 13.94,-31.1094 31.11,-31.1094 h 2.9 c 13.68,0 24.44,8.4375 28.81,20.9375 1.16,3.2032 3.48,4.9414 6.68,4.9414 3.78,0 7.85,-2.621 7.85,-6.9687 0,-0.5898 -0.29,-1.4727 -0.59,-2.6211 C 3384.61,11.9297 3367.73,0 3347.94,0 h -2.9 c -24.73,0 -45.36,20.0508 -45.36,45.0703 V 98 c 0,24.711 20.63,45.352 45.07,45.352 h 2.9 c 25.3,0 45.67,-18.883 45.67,-45.352 V 71.5391 c 0,-3.7891 -3.48,-7.2696 -7.26,-7.2696"
         style="fill:#231f20;fill-opacity:1;fill-rule:nonzero;stroke:none"
         id="path84" />
      <path
         d="m 3571.98,0 h -2.9 c -29.08,0 -53.52,19.1914 -53.52,52.9297 0,4.9414 3.47,7.2617 7.27,7.2617 3.77,0 7.29,-2.3203 7.29,-7.2617 0,-24.4414 17.15,-38.6797 38.96,-38.6797 h 2.9 c 22.69,0 40.15,13.3594 40.15,35.7695 0,58.7505 -93.37,41.5821 -93.37,104.3905 0,30.25 23.27,49.731 50.32,49.731 h 2.9 c 27.92,0 50.89,-16.27 50.89,-45.059 0,-4.672 -3.49,-6.992 -6.96,-6.992 -3.49,0 -7.26,2.32 -7.26,7.281 0,19.77 -15.72,30.231 -36.67,30.231 h -2.9 c -19.48,0 -36.07,-13.372 -36.07,-35.481 0,-49.141 93.64,-36.351 93.64,-104.1015 C 3626.65,19.4883 3602.81,0 3571.98,0"
         style="fill:#231f20;fill-opacity:1;fill-rule:nonzero;stroke:none"
         id="path86" />
      <path
         d="m 3711.25,0 h -2.89 c -24.75,0 -45.38,20.0508 -45.38,45.0703 V 98 c 0,25.59 20.63,45.352 45.38,45.352 h 2.89 c 24.74,0 45.38,-19.762 45.38,-45.352 0,-4.9414 -3.5,-7.2617 -6.97,-7.2617 -3.5,0 -7.29,2.3203 -7.29,7.2617 0,17.148 -13.93,31.121 -31.12,31.121 h -2.89 c -17.15,0 -31.12,-13.973 -31.12,-31.121 V 45.0703 c 0,-17.1406 13.97,-31.1094 31.12,-31.1094 h 2.89 c 17.19,0 31.12,13.9688 31.12,31.1094 0,4.9492 3.79,7.5586 7.29,7.5586 3.47,0 6.97,-2.6094 6.97,-7.5586 C 3756.63,20.0508 3735.99,0 3711.25,0"
         style="fill:#231f20;fill-opacity:1;fill-rule:nonzero;stroke:none"
         id="path88" />
      <path
         d="m 3809.52,0 c -3.48,0 -7.26,2.03125 -7.26,6.96875 V 136.09 c 0,4.941 3.78,7.262 7.26,7.262 3.52,0 7.29,-2.321 7.29,-7.262 V 6.96875 C 3816.81,2.03125 3813.04,0 3809.52,0 Z m 0,180.02 c -3.48,0 -7.26,2.609 -7.26,7.261 v 9.59 c 0,4.938 3.78,7.27 7.26,7.27 3.52,0 7.29,-2.332 7.29,-7.27 v -9.59 c 0,-4.652 -3.77,-7.261 -7.29,-7.261"
         style="fill:#231f20;fill-opacity:1;fill-rule:nonzero;stroke:none"
         id="path90" />
      <path
         d="m 3943.89,98 c 0,17.148 -14.56,31.121 -30.85,31.121 h -2.89 c -17.16,0 -31.41,-13.973 -31.41,-31.121 V 78.8008 h 65.15 z m 6.97,-33.7305 h -72.12 V 45.0703 c 0,-17.1406 13.96,-31.1094 31.11,-31.1094 h 2.89 c 13.68,0 24.45,8.4375 28.82,20.9375 1.15,3.2032 3.49,4.9414 6.67,4.9414 3.78,0 7.86,-2.621 7.86,-6.9687 0,-0.5898 -0.27,-1.4727 -0.57,-2.6211 C 3949.41,11.9297 3932.53,0 3912.74,0 h -2.89 c -24.71,0 -45.37,20.0508 -45.37,45.0703 V 98 c 0,24.711 20.66,45.352 45.07,45.352 h 2.92 c 25.31,0 45.66,-18.883 45.66,-45.352 V 71.5391 c 0,-3.7891 -3.49,-7.2696 -7.27,-7.2696"
         style="fill:#231f20;fill-opacity:1;fill-rule:nonzero;stroke:none"
         id="path92" />
      <path
         d="m 4086.94,0 c -3.48,0 -7.26,2.03125 -7.26,6.96875 V 98.3008 c 0,17.4372 -13.37,30.8202 -30.83,30.8202 h -2.62 c -17.45,0 -31.12,-14.262 -31.12,-31.6991 V 6.96875 C 4015.11,2.03125 4011.33,0 4007.84,0 c -3.5,0 -7.28,2.03125 -7.28,6.96875 V 136.09 c 0,4.941 3.78,7.262 7.28,7.262 3.49,0 7.27,-2.321 7.27,-7.262 v -6.969 c 5.52,8.43 19.2,14.231 31.12,14.231 h 2.62 c 24.71,0 45.38,-19.762 45.38,-45.352 V 6.96875 C 4094.23,2.03125 4090.43,0 4086.94,0"
         style="fill:#231f20;fill-opacity:1;fill-rule:nonzero;stroke:none"
         id="path94" />
      <path
         d="m 4186.66,0 h -2.91 c -24.73,0 -45.36,20.0508 -45.36,45.0703 V 98 c 0,25.59 20.63,45.352 45.36,45.352 h 2.91 c 24.74,0 45.37,-19.762 45.37,-45.352 0,-4.9414 -3.48,-7.2617 -6.97,-7.2617 -3.48,0 -7.28,2.3203 -7.28,7.2617 0,17.148 -13.95,31.121 -31.12,31.121 h -2.91 c -17.15,0 -31.1,-13.973 -31.1,-31.121 V 45.0703 c 0,-17.1406 13.95,-31.1094 31.1,-31.1094 h 2.91 c 17.17,0 31.12,13.9688 31.12,31.1094 0,4.9492 3.8,7.5586 7.28,7.5586 3.49,0 6.97,-2.6094 6.97,-7.5586 C 4232.03,20.0508 4211.4,0 4186.66,0"
         style="fill:#231f20;fill-opacity:1;fill-rule:nonzero;stroke:none"
         id="path96" />
      <path
         d="m 4351.54,98 c 0,17.148 -14.54,31.121 -30.84,31.121 h -2.92 c -17.15,0 -31.4,-13.973 -31.4,-31.121 V 78.8008 h 65.16 z m 7,-33.7305 h -72.16 V 45.0703 c 0,-17.1406 13.96,-31.1094 31.11,-31.1094 h 2.93 c 13.66,0 24.42,8.4375 28.78,20.9375 1.17,3.2032 3.49,4.9414 6.7,4.9414 3.78,0 7.85,-2.621 7.85,-6.9687 0,-0.5898 -0.29,-1.4727 -0.59,-2.6211 C 4357.06,11.9297 4340.2,0 4320.42,0 h -2.93 c -24.71,0 -45.34,20.0508 -45.34,45.0703 V 98 c 0,24.711 20.63,45.352 45.07,45.352 h 2.91 c 25.28,0 45.66,-18.883 45.66,-45.352 V 71.5391 c 0,-3.7891 -3.48,-7.2696 -7.25,-7.2696"
         style="fill:#231f20;fill-opacity:1;fill-rule:nonzero;stroke:none"
         id="path98" />
      <path
         d="m 4451.55,0 h -5.23 c -18.04,0 -37.24,11.0508 -45.95,28.4883 -0.29,1.1719 -0.88,2.332 -0.88,3.2031 0,4.3789 4.07,7.2891 7.85,7.2891 3.21,0 5.24,-1.461 6.41,-4.3789 5.82,-12.5 20.09,-20.6407 32.57,-20.6407 h 5.23 c 19.79,0 32.88,12.7891 32.88,27.0508 0,47.1094 -78.83,13.6485 -78.83,67.4573 v 1.453 c 0,19.488 19.2,33.43 44.21,33.43 h 0.59 c 24.44,0 41.01,-12.18 41.01,-18.883 0,-3.789 -3.2,-7.27 -6.98,-7.27 -1.74,0 -3.5,0.571 -4.96,2.031 -7.84,6.981 -16.26,9.891 -29.07,9.891 h -1.44 c -11.65,0 -29.1,-5.82 -29.1,-19.48 v -1.172 c 0,-36.9299 79.1,-8.438 79.1,-67.4573 C 4498.96,11.9297 4471.91,0 4451.55,0"
         style="fill:#231f20;fill-opacity:1;fill-rule:nonzero;stroke:none"
         id="path100" />
      <path
         d="m 202.773,302.242 h -2.91 c -29.39,0 -53.254,23.281 -53.254,52.957 v 144.035 c 0,4.95 3.493,7.274 7.278,7.274 3.492,0 6.98,-2.324 6.98,-7.274 V 355.199 c 0,-21.824 17.168,-38.992 38.996,-38.992 h 2.91 c 21.821,0 38.989,17.168 38.989,38.992 v 144.035 c 0,4.95 3.496,7.274 6.988,7.274 3.777,0 7.273,-2.324 7.273,-7.274 V 355.199 c 0,-29.676 -23.859,-52.957 -53.25,-52.957"
         style="fill:#231f20;fill-opacity:1;fill-rule:nonzero;stroke:none"
         id="path102" />
      <path
         d="m 393.961,302.242 c -3.492,0 -7.277,2.039 -7.277,6.981 v 91.367 c 0,17.461 -13.383,30.851 -30.844,30.851 h -2.617 c -17.461,0 -31.137,-14.257 -31.137,-31.718 v -90.5 c 0,-4.942 -3.781,-6.981 -7.277,-6.981 -3.493,0 -7.27,2.039 -7.27,6.981 v 129.199 c 0,4.953 3.777,7.277 7.27,7.277 3.496,0 7.277,-2.324 7.277,-7.277 v -6.981 c 5.531,8.438 19.207,14.258 31.137,14.258 h 2.617 c 24.734,0 45.394,-19.785 45.394,-45.39 v -91.086 c 0,-4.942 -3.785,-6.981 -7.273,-6.981"
         style="fill:#231f20;fill-opacity:1;fill-rule:nonzero;stroke:none"
         id="path104" />
      <path
         d="m 460.891,302.242 c -3.493,0 -7.278,2.039 -7.278,6.981 v 129.199 c 0,4.953 3.785,7.277 7.278,7.277 3.488,0 7.269,-2.324 7.269,-7.277 V 309.223 c 0,-4.942 -3.781,-6.981 -7.269,-6.981 z m 0,180.117 c -3.493,0 -7.278,2.618 -7.278,7.274 v 9.601 c 0,4.95 3.785,7.274 7.278,7.274 3.488,0 7.269,-2.324 7.269,-7.274 v -9.601 c 0,-4.656 -3.781,-7.274 -7.269,-7.274"
         style="fill:#231f20;fill-opacity:1;fill-rule:nonzero;stroke:none"
         id="path106" />
      <path
         d="M 610.453,436.098 568.844,308.063 c -2.035,-4.661 -5.821,-5.821 -9.02,-5.821 -3.203,0 -7.566,1.16 -9.023,5.821 l -41.606,128.035 c -0.293,0.578 -0.293,1.457 -0.293,2.617 0,4.367 3.786,6.984 7.563,6.984 3.203,0 5.531,-1.75 6.695,-4.953 l 36.664,-112.312 36.664,112.312 c 1.164,3.203 3.492,4.953 6.692,4.953 3.785,0 7.566,-2.617 7.566,-6.984 0,-1.16 0,-2.039 -0.293,-2.617"
         style="fill:#231f20;fill-opacity:1;fill-rule:nonzero;stroke:none"
         id="path108" />
      <path
         d="m 725.398,400.309 c 0,17.168 -14.546,31.132 -30.843,31.132 h -2.91 c -17.168,0 -31.426,-13.964 -31.426,-31.132 v -19.211 h 65.179 z m 6.985,-33.762 h -72.164 v -19.199 c 0,-17.168 13.965,-31.141 31.133,-31.141 h 2.91 c 13.676,0 24.445,8.438 28.808,20.957 1.164,3.191 3.493,4.941 6.696,4.941 3.781,0 7.855,-2.617 7.855,-6.984 0,-0.582 -0.293,-1.453 -0.586,-2.617 -6.105,-18.328 -22.988,-30.262 -42.773,-30.262 h -2.91 c -24.731,0 -45.391,20.078 -45.391,45.106 v 52.961 c 0,24.726 20.66,45.39 45.102,45.39 h 2.906 c 25.316,0 45.687,-18.918 45.687,-45.39 v -26.485 c 0,-3.781 -3.488,-7.277 -7.273,-7.277"
         style="fill:#231f20;fill-opacity:1;fill-rule:nonzero;stroke:none"
         id="path110" />
      <path
         d="m 843.832,420.387 c -2.328,0 -4.363,1.16 -5.82,3.191 -4.653,6.699 -10.473,7.863 -18.621,7.863 -11.93,0 -21.536,-5.246 -21.536,-19.211 V 309.516 c 0,-4.95 -3.492,-7.274 -7.273,-7.274 -3.492,0 -7.269,2.324 -7.269,7.274 v 128.906 c 0,4.953 3.777,7.277 7.562,7.277 3.488,0 6.98,-2.324 6.98,-6.984 4.368,4.367 13.676,6.984 21.536,6.984 10.183,0 22.988,-3.203 30.261,-13.683 1.164,-1.453 1.75,-2.911 1.75,-4.364 0,-4.355 -3.785,-7.265 -7.57,-7.265"
         style="fill:#231f20;fill-opacity:1;fill-rule:nonzero;stroke:none"
         id="path112" />
      <path
         d="m 921.527,302.242 h -5.238 c -18.035,0 -37.246,11.055 -45.973,28.516 -0.293,1.16 -0.875,2.324 -0.875,3.203 0,4.363 4.075,7.273 7.86,7.273 3.195,0 5.238,-1.453 6.398,-4.363 5.821,-12.512 20.078,-20.664 32.59,-20.664 h 5.238 c 19.789,0 32.883,12.801 32.883,27.059 0,47.14 -78.859,13.683 -78.859,67.511 v 1.453 c 0,19.504 19.211,33.469 44.234,33.469 h 0.582 c 24.442,0 41.024,-12.226 41.024,-18.918 0,-3.777 -3.2,-7.273 -6.981,-7.273 -1.742,0 -3.492,0.586 -4.945,2.039 -7.86,6.984 -16.297,9.894 -29.098,9.894 h -1.457 c -11.64,0 -29.101,-5.82 -29.101,-19.503 v -1.161 c 0,-36.953 79.152,-8.437 79.152,-67.511 0,-29.09 -27.063,-41.024 -47.434,-41.024"
         style="fill:#231f20;fill-opacity:1;fill-rule:nonzero;stroke:none"
         id="path114" />
      <path
         d="m 1015.82,302.242 c -3.5,0 -7.28,2.039 -7.28,6.981 v 129.199 c 0,4.953 3.78,7.277 7.28,7.277 3.49,0 7.27,-2.324 7.27,-7.277 V 309.223 c 0,-4.942 -3.78,-6.981 -7.27,-6.981 z m 0,180.117 c -3.5,0 -7.28,2.618 -7.28,7.274 v 9.601 c 0,4.95 3.78,7.274 7.28,7.274 3.49,0 7.27,-2.324 7.27,-7.274 v -9.601 c 0,-4.656 -3.78,-7.274 -7.27,-7.274"
         style="fill:#231f20;fill-opacity:1;fill-rule:nonzero;stroke:none"
         id="path116" />
      <path
         d="m 1122.31,302.242 c -22.11,0 -36.08,13.965 -36.08,36.082 v 92.239 h -10.47 c -4.95,0 -7.28,3.496 -7.28,6.992 0,3.777 2.33,7.265 7.28,7.265 h 10.47 v 54.414 c 0,4.95 3.49,7.274 7.28,7.274 3.49,0 6.98,-2.324 6.98,-7.274 V 444.82 h 20.08 c 4.94,0 7.56,-3.488 7.56,-7.265 0,-3.496 -2.62,-6.992 -7.56,-6.992 h -20.08 v -92.239 c 0,-12.508 8.15,-22.117 21.82,-22.117 4.95,0 7.28,-3.488 7.28,-6.984 0,-3.778 -2.33,-6.981 -7.28,-6.981"
         style="fill:#231f20;fill-opacity:1;fill-rule:nonzero;stroke:none"
         id="path118" />
      <path
         d="M 1248.9,436.098 1199.14,281 c -5.82,-18.051 -17.17,-39.859 -38.99,-39.859 -4.37,0 -6.99,3.191 -6.99,7.558 0,4.36 2.62,5.821 6.4,6.699 15.13,2.911 20.95,16.582 25.32,29.973 l 10.47,31.715 -41.6,118.719 c -0.3,0.871 -0.3,1.75 -0.3,2.91 0,4.367 3.79,6.984 7.57,6.984 2.62,0 5.53,-1.453 6.69,-4.953 l 34.92,-100.672 32.3,100.391 c 1.16,3.484 3.49,5.234 6.69,5.234 3.79,0 7.56,-2.617 7.56,-6.984 0,-1.16 0,-2.039 -0.28,-2.617"
         style="fill:#231f20;fill-opacity:1;fill-rule:nonzero;stroke:none"
         id="path120" />
      <path
         d="m 1432.22,400.309 c 0,17.168 -13.97,31.132 -31.14,31.132 h -2.91 c -17.17,0 -31.13,-13.964 -31.13,-31.132 v -52.961 c 0,-17.168 13.96,-31.141 31.13,-31.141 h 2.91 c 17.17,0 31.14,13.973 31.14,31.141 z m -31.14,-98.067 h -2.91 c -24.73,0 -45.39,20.078 -45.39,45.106 v 52.961 c 0,25.605 20.66,45.39 45.39,45.39 h 2.91 c 24.74,0 45.39,-19.785 45.39,-45.39 v -52.961 c 0,-25.028 -20.65,-45.106 -45.39,-45.106"
         style="fill:#231f20;fill-opacity:1;fill-rule:nonzero;stroke:none"
         id="path122" />
      <path
         d="m 1536.98,492.25 c -12.51,0 -21.24,-8.145 -21.24,-22.109 V 444.82 h 19.49 c 4.95,0 7.57,-3.488 7.57,-6.984 0,-3.484 -2.62,-7.273 -7.57,-7.273 h -19.49 v -121.34 c 0,-4.942 -3.5,-6.981 -6.99,-6.981 -3.49,0 -7.27,2.039 -7.27,6.981 v 121.34 h -11.06 c -4.95,0 -7.28,3.789 -7.28,7.273 0,3.496 2.33,6.984 7.28,6.984 h 11.06 v 25.321 c 0,24.152 14.83,36.367 35.5,36.367 4.94,0 7.57,-3.485 7.57,-6.981 0,-3.488 -2.63,-7.277 -7.57,-7.277"
         style="fill:#231f20;fill-opacity:1;fill-rule:nonzero;stroke:none"
         id="path124" />
      <path
         d="m 1746.49,359.859 c 0,21.825 -17.75,40.731 -38.99,40.731 h -39.58 v -82.637 h 39.58 c 21.82,0 38.99,17.168 38.99,38.996 z m -2.62,95.145 c 0,22.121 -15.13,37.246 -36.37,37.246 h -39.58 v -77.109 h 39.58 c 20.94,0 36.37,16.593 36.37,38.703 z M 1707.5,303.695 h -46.85 c -3.79,0 -6.98,3.496 -6.98,7.278 v 188.261 c 0,3.789 3.19,7.274 6.98,7.274 h 46.85 c 29.39,0 50.63,-22.11 50.63,-51.504 v -1.16 c 0,-19.785 -9.32,-36.953 -24.44,-46.27 16.29,-9.601 27.06,-27.929 27.06,-47.715 v -2.91 c 0,-29.394 -23.86,-53.254 -53.25,-53.254"
         style="fill:#231f20;fill-opacity:1;fill-rule:nonzero;stroke:none"
         id="path126" />
      <path
         d="m 1869.58,378.188 c -16.87,-7.86 -64.89,-4.657 -64.89,-32.879 v -1.457 c 0,-17.461 12.81,-27.645 31.14,-27.645 h 2.92 c 17.16,0 30.83,13.973 30.83,31.141 z m 25.61,-75.946 h -1.45 c -11.65,2.039 -17.47,7.274 -20.66,15.129 -8.45,-9.601 -20.66,-15.129 -34.33,-15.129 h -2.92 c -24.44,0 -45.4,14.551 -45.4,41.903 v 1.457 c 0,38.992 45.98,36.367 70.72,44.804 7.85,2.625 8.43,4.364 8.43,11.063 0,16.875 -13.09,29.679 -29.39,29.679 h -2.03 c -11.64,0 -22.99,-4.367 -28.81,-17.46 -1.45,-2.911 -3.5,-4.368 -6.41,-4.368 -3.77,0 -7.85,2.91 -7.85,7.278 0,0.879 0.3,2.039 0.87,3.203 8.44,19.785 26.78,25.898 42.2,25.898 h 2.03 c 22.99,0 43.65,-18.918 43.65,-43.066 v -58.488 c 0,-22.411 2.91,-26.192 12.22,-27.645 4.08,-0.586 6.11,-2.91 6.11,-6.984 0,-4.364 -2.61,-7.274 -6.98,-7.274"
         style="fill:#231f20;fill-opacity:1;fill-rule:nonzero;stroke:none"
         id="path128" />
      <path
         d="m 1975.5,302.242 h -5.23 c -18.05,0 -37.25,11.055 -45.98,28.516 -0.29,1.16 -0.88,2.324 -0.88,3.203 0,4.363 4.09,7.273 7.86,7.273 3.21,0 5.24,-1.453 6.4,-4.363 5.82,-12.512 20.08,-20.664 32.6,-20.664 h 5.23 c 19.79,0 32.88,12.801 32.88,27.059 0,47.14 -78.85,13.683 -78.85,67.511 v 1.453 c 0,19.504 19.21,33.469 44.22,33.469 h 0.59 c 24.44,0 41.03,-12.226 41.03,-18.918 0,-3.777 -3.21,-7.273 -6.99,-7.273 -1.74,0 -3.48,0.586 -4.94,2.039 -7.86,6.984 -16.3,9.894 -29.1,9.894 h -1.45 c -11.64,0 -29.11,-5.82 -29.11,-19.503 v -1.161 c 0,-36.953 79.15,-8.437 79.15,-67.511 0,-29.09 -27.06,-41.024 -47.43,-41.024"
         style="fill:#231f20;fill-opacity:1;fill-rule:nonzero;stroke:none"
         id="path130" />
      <path
         d="m 2133.8,400.309 c 0,17.168 -14.55,31.132 -30.84,31.132 h -2.91 c -17.16,0 -31.42,-13.964 -31.42,-31.132 v -19.211 h 65.17 z m 6.99,-33.762 h -72.16 v -19.199 c 0,-17.168 13.96,-31.141 31.13,-31.141 h 2.91 c 13.67,0 24.44,8.438 28.81,20.957 1.16,3.191 3.5,4.941 6.69,4.941 3.79,0 7.86,-2.617 7.86,-6.984 0,-0.582 -0.29,-1.453 -0.59,-2.617 -6.11,-18.328 -22.98,-30.262 -42.77,-30.262 h -2.91 c -24.74,0 -45.39,20.078 -45.39,45.106 v 52.961 c 0,24.726 20.65,45.39 45.1,45.39 h 2.91 c 25.32,0 45.68,-18.918 45.68,-45.39 v -26.485 c 0,-3.781 -3.48,-7.277 -7.27,-7.277"
         style="fill:#231f20;fill-opacity:1;fill-rule:nonzero;stroke:none"
         id="path132" />
      <path
         d="m 2229.84,302.242 c -23.58,0 -36.09,16.004 -36.09,36.082 v 160.91 c 0,4.95 3.78,7.274 7.28,7.274 3.49,0 7.28,-2.324 7.28,-7.274 v -160.91 c 0,-12.508 8.43,-22.117 21.53,-22.117 4.94,0 7.56,-3.488 7.56,-6.984 0,-3.778 -2.62,-6.981 -7.56,-6.981"
         style="fill:#231f20;fill-opacity:1;fill-rule:nonzero;stroke:none"
         id="path134" />
    </g>
  </g>
</svg>
